# xmcd
#
# Track frame offsets: 
#        150
#        12417
#        24840
#        34667
#        47662
#        61092
#        76027
#        88915
#        105280
#        118610
#        131605
#        143107
#        154010
#        166705
#        181390
#        200550
#        218147
#        235985
#        250015
#        268687
#
# Disc length: 3804 seconds
#
# Revision: 1
# Processed by: cddbd v1.5.2PL0 Copyright (c) Steve Scherf et al.
# Submitted via: ExactAudioCopy v1.1
#
DISCID=fd0eda14
DTITLE=Anne Murray - The Ultimate Anne Murray
DYEAR=2001
DGENRE=Crossover
TTITLE0=Blue Finger Lou
TTITLE1=Destiny
TTITLE2=Snowbird
TTITLE3=I'll Be Your Baby Tonight
TTITLE4=You've Got A Friend
TTITLE5=Killing Me Softy With His Song
TTITLE6=I'll Never Fall In Love Again
TTITLE7=You Needed Me
TTITLE8=Just One Look
TTITLE9=He Thinks I Still Care
TTITLE10=Walk Right Back
TTITLE11=Daydream Believer
TTITLE12=I Just Fall In Love Again
TTITLE13=Could I Have This Dance
TTITLE14=Now And Forever (You And Me)
TTITLE15=Without You
TTITLE16=Secret Love
TTITLE17=You Belong To Me
TTITLE18=Cry Me A River
TTITLE19=The Wayward Wind
EXTD=
EXTT0=
EXTT1=
EXTT2=
EXTT3=
EXTT4=
EXTT5=
EXTT6=
EXTT7=
EXTT8=
EXTT9=
EXTT10=
EXTT11=
EXTT12=
EXTT13=
EXTT14=
EXTT15=
EXTT16=
EXTT17=
EXTT18=
EXTT19=
PLAYORDER=
